<svg xmlns="http://www.w3.org/2000/svg" xml:space="preserve" width="655.359" height="655.359" fill-rule="evenodd" clip-rule="evenodd" image-rendering="optimizeQuality" shape-rendering="geometricPrecision" text-rendering="geometricPrecision" viewBox="0 0 6.827 6.827">
  <defs>
    <style>
      .fil0{fill:#e30d18}
    </style>
  </defs>
  <g id="Layer_x0020_1">
    <path d="M3.843 1.703h-.86v.58H2.67V1.39h1.487v.893h-.314z" class="fil0"/>
    <path fill="#bdbdbd" d="M1.267 2.08H5.56a.439.439 0 0 1 .44.44v2.427a.439.439 0 0 1-.44.44H1.267a.439.439 0 0 1-.44-.44V2.52a.439.439 0 0 1 .44-.44z"/>
    <path d="M3.62 3.526h.753v.414H3.62v.753h-.414V3.94h-.753v-.414h.753v-.753h.414z" class="fil0"/>
    <path fill="#e30d18" fill-rule="nonzero" d="M1.65 1.922h.54v.18h-.54v-.18zm2.987 0h.54v.18h-.54v-.18z"/>
  </g>
  <path fill="none" d="M0 0h6.827v6.827H0z"/>
</svg>