<svg xmlns="http://www.w3.org/2000/svg" xml:space="preserve" width="655.359" height="655.359" fill-rule="evenodd" clip-rule="evenodd" image-rendering="optimizeQuality" shape-rendering="geometricPrecision" text-rendering="geometricPrecision" viewBox="0 0 6.827 6.827">
  <defs>
    <style>
      .fil2{fill:#546e7a}
    </style>
  </defs>
  <g id="Layer_x0020_1">
    <path fill="#995817" fill-rule="nonzero" d="M2.3 3.481c-.202.003-.321-.08-.376-.207a.443.443 0 0 1-.027-.227.785.785 0 0 1 .069-.234c.107-.233.328-.457.579-.505a.744.744 0 0 1 .729-.656h.011a.723.723 0 0 1 .72.634.519.519 0 0 1 .418.38.423.423 0 0 1 .096-.01c-.002 0-.01 0 0 0a.413.413 0 0 1 .414.414c0-.001 0-.01 0 0a.423.423 0 0 1-.418.425L3.84 3.49c-.54-.006-1.249-.013-1.54-.009z"/>
    <path fill="#90a4ae" d="M1.528 3.16h3.771c.103 0 .187.041.251.106.067.067.112.16.134.26l.282 1.238a.291.291 0 0 1 .007.065.317.317 0 0 1-.097.223.429.429 0 0 1-.295.124H1.246a.429.429 0 0 1-.295-.123.317.317 0 0 1-.098-.224c0-.02.003-.042.008-.065l.281-1.238a.534.534 0 0 1 .134-.26.346.346 0 0 1 .252-.105z"/>
    <path d="M1.528 3.16h3.771c.103 0 .187.041.251.106.067.067.112.16.134.26l.01.04h-4.56l.008-.04a.534.534 0 0 1 .134-.26.346.346 0 0 1 .252-.105zM2.553 3.994c.075 0 .144.023.198.06.033.023.06.051.08.083h1.165a.281.281 0 0 1 .08-.083.348.348 0 0 1 .198-.06c.087 0 .165.03.222.078a.247.247 0 0 1 .092.189.23.23 0 0 1-.036.122.252.252 0 0 1 .036.123c0 .073-.035.14-.092.188a.344.344 0 0 1-.222.078.344.344 0 0 1-.219-.076.266.266 0 0 1-.075-.098H2.847a.266.266 0 0 1-.075.098.344.344 0 0 1-.22.076.344.344 0 0 1-.221-.078.247.247 0 0 1-.092-.188.23.23 0 0 1 .035-.123.252.252 0 0 1-.035-.122c0-.074.035-.14.092-.189a.344.344 0 0 1 .222-.078z" class="fil2"/>
  </g>
  <path fill="none" d="M0 0h6.827v6.827H0z"/>
</svg>
